<?xml version="1.0" encoding="utf-8"?>
<svg viewBox="0 207.428 484 83.429" xmlns="http://www.w3.org/2000/svg" xmlns:xlink="http://www.w3.org/1999/xlink">
  <defs>
    <pattern id="pattern-0-0" patternTransform="matrix(1, 0, 0, 1, 230.642995, 234.160538)" xlink:href="#pattern-0"/>
    <pattern x="0" y="0" width="25" height="25" patternUnits="userSpaceOnUse" viewBox="0 0 100 100" id="pattern-0">
      <rect x="0" y="0" width="50" height="100" style="fill: black;"/>
    </pattern>
  </defs>
  <path style="fill: none; fill-opacity: 0; stroke: url(#pattern-0-0); stroke-width: 2px;" d="M 6.286 221.143 C 6.286 227.951 7.752 236.523 10.285 242.857 C 12.609 248.667 23.974 256.545 28.572 261.144 C 53.377 285.948 84.939 271.563 114.857 268.571 C 129.266 267.131 145.426 263.894 158.857 258.857 C 169.475 254.875 180.807 252.554 191.429 248.571 C 205.162 243.421 219.571 238.809 233.143 234.286 C 249.774 228.742 268.124 227.975 285.143 224.571 C 292.904 223.019 304.131 222.383 312 222.858 C 323.885 223.576 335.89 225.581 345.714 228 C 361.157 231.802 376.794 233.217 392 238.286 C 395.918 239.592 410.762 243.242 414.857 244 C 422.991 245.506 432.842 244.146 441.143 242.857 C 453.062 241.007 460.24 235.594 469.714 230.857 C 471.4 230.014 480 218.857 480 218.857"/>
</svg>